REM DIRINDEX 1\2,1\3,1\4,1\5
REM DIRNAME cjc004,folder01,folder02,folder03,folder04
TITLE ""
FILE "1Q_t_1059-1068.mp3" MP3
  TRACK 01 AUDIO
    TITLE "3:cjc004_4081"
    INDEX 01 00:00:00
  TRACK 02 AUDIO
    TITLE "0:"
    INDEX 01 00:00:64
  TRACK 03 AUDIO
    TITLE "4:cjc004_4082"
    INDEX 01 00:01:24
  TRACK 04 AUDIO
    TITLE "0:"
    INDEX 01 00:02:49
  TRACK 05 AUDIO
    TITLE "5:cjc004_4083"
    INDEX 01 00:03:02
  TRACK 06 AUDIO
    TITLE "0:"
    INDEX 01 00:07:60
  TRACK 07 AUDIO
    TITLE "3:cjc004_4084"
    INDEX 01 00:08:34
  TRACK 08 AUDIO
    TITLE "0:"
    INDEX 01 00:09:36
  TRACK 09 AUDIO
    TITLE "4:cjc004_4085"
    INDEX 01 00:09:73
  TRACK 10 AUDIO
    TITLE "0:"
    INDEX 01 00:11:21
  TRACK 11 AUDIO
    TITLE "5:cjc004_4086"
    INDEX 01 00:11:46
  TRACK 12 AUDIO
    TITLE "0:"
    INDEX 01 00:17:18
  TRACK 13 AUDIO
    TITLE "3:cjc004_4087"
    INDEX 01 00:17:72
  TRACK 14 AUDIO
    TITLE "0:"
    INDEX 01 00:19:24
  TRACK 15 AUDIO
    TITLE "4:cjc004_4088"
    INDEX 01 00:19:54
  TRACK 16 AUDIO
    TITLE "0:"
    INDEX 01 00:20:61
  TRACK 17 AUDIO
    TITLE "5:cjc004_4089"
    INDEX 01 00:21:09
  TRACK 18 AUDIO
    TITLE "0:"
    INDEX 01 00:25:07
  TRACK 19 AUDIO
    TITLE "3:cjc004_4090"
    INDEX 01 00:25:60
  TRACK 20 AUDIO
    TITLE "0:"
    INDEX 01 00:27:06
  TRACK 21 AUDIO
    TITLE "4:cjc004_4091"
    INDEX 01 00:27:30
  TRACK 22 AUDIO
    TITLE "0:"
    INDEX 01 00:28:39
  TRACK 23 AUDIO
    TITLE "5:cjc004_4092"
    INDEX 01 00:28:59
  TRACK 24 AUDIO
    TITLE "0:"
    INDEX 01 00:33:03
  TRACK 25 AUDIO
    TITLE "3:cjc004_4093"
    INDEX 01 00:33:62
  TRACK 26 AUDIO
    TITLE "0:"
    INDEX 01 00:34:69
  TRACK 27 AUDIO
    TITLE "4:cjc004_4094"
    INDEX 01 00:35:25
  TRACK 28 AUDIO
    TITLE "0:"
    INDEX 01 00:36:42
  TRACK 29 AUDIO
    TITLE "5:cjc004_4095"
    INDEX 01 00:36:70
  TRACK 30 AUDIO
    TITLE "0:"
    INDEX 01 00:41:00
  TRACK 31 AUDIO
    TITLE "3:cjc004_4096"
    INDEX 01 00:41:53
  TRACK 32 AUDIO
    TITLE "0:"
    INDEX 01 00:43:09
  TRACK 33 AUDIO
    TITLE "4:cjc004_4097"
    INDEX 01 00:43:42
  TRACK 34 AUDIO
    TITLE "0:"
    INDEX 01 00:45:18
  TRACK 35 AUDIO
    TITLE "5:cjc004_4098"
    INDEX 01 00:45:47
  TRACK 36 AUDIO
    TITLE "0:"
    INDEX 01 00:51:36
  TRACK 37 AUDIO
    TITLE "3:cjc004_4099"
    INDEX 01 00:52:10
  TRACK 38 AUDIO
    TITLE "0:"
    INDEX 01 00:53:27
  TRACK 39 AUDIO
    TITLE "4:cjc004_4100"
    INDEX 01 00:53:64
  TRACK 40 AUDIO
    TITLE "0:"
    INDEX 01 00:55:12
  TRACK 41 AUDIO
    TITLE "5:cjc004_4101"
    INDEX 01 00:55:36
  TRACK 42 AUDIO
    TITLE "0:"
    INDEX 01 01:00:49
  TRACK 43 AUDIO
    TITLE "3:cjc004_4102"
    INDEX 01 01:01:23
  TRACK 44 AUDIO
    TITLE "0:"
    INDEX 01 01:02:30
  TRACK 45 AUDIO
    TITLE "4:cjc004_4103"
    INDEX 01 01:02:57
  TRACK 46 AUDIO
    TITLE "0:"
    INDEX 01 01:04:03
  TRACK 47 AUDIO
    TITLE "5:cjc004_4104"
    INDEX 01 01:04:31
  TRACK 48 AUDIO
    TITLE "0:"
    INDEX 01 01:09:30
  TRACK 49 AUDIO
    TITLE "3:cjc004_4105"
    INDEX 01 01:10:14
  TRACK 50 AUDIO
    TITLE "0:"
    INDEX 01 01:11:21
  TRACK 51 AUDIO
    TITLE "4:cjc004_4106"
    INDEX 01 01:11:52
  TRACK 52 AUDIO
    TITLE "0:"
    INDEX 01 01:12:52
  TRACK 53 AUDIO
    TITLE "5:cjc004_4107"
    INDEX 01 01:13:04
  TRACK 54 AUDIO
    TITLE "0:"
    INDEX 01 01:17:33
  TRACK 55 AUDIO
    TITLE "3:cjc004_4108"
    INDEX 01 01:18:15
  TRACK 56 AUDIO
    TITLE "0:"
    INDEX 01 01:19:30
  TRACK 57 AUDIO
    TITLE "4:cjc004_4109"
    INDEX 01 01:19:58
  TRACK 58 AUDIO
    TITLE "0:"
    INDEX 01 01:20:69
  TRACK 59 AUDIO
    TITLE "5:cjc004_4110"
    INDEX 01 01:21:21
  TRACK 60 AUDIO
    TITLE "0:"
    INDEX 01 01:26:03
